<svg width="219" height="62" viewBox="0 0 219 62" fill="none" xmlns="http://www.w3.org/2000/svg">
<g clip-path="url(#clip0_1314_1172)">
<circle cx="21.5" cy="17.5" r="13.5" fill="black"/>
<path d="M32.6377 23.9123C34.2577 22.0223 34.8877 19.0748 35.0002 17.8373C35.0002 10.5679 40.8932 4.6748 48.1627 4.6748C55.4321 4.6748 61.3252 10.5679 61.3252 17.8373C61.3252 25.1068 52.5502 29.9873 48.1627 30.9998C43.7752 32.0123 40.4677 31.7423 35.3377 32.0123" stroke="black" stroke-width="0.675"/>
<path d="M44.7707 4.67441L45.0355 4.7009C39.3629 6.04618 35.0757 10.9707 34.6907 16.9575L25.2382 5.92951L25.4892 4.67441H44.7707Z" fill="black" stroke="black" stroke-width="0.675"/>
<path d="M48.2359 31.3289L48.2359 31.3289L48.2386 31.3283C50.4843 30.81 53.8221 29.3129 56.6036 27.0252C58.7464 25.2628 60.592 23.0027 61.3252 20.3284V32.0119H45.1725L45.2082 32.0017L48.2359 31.3289Z" fill="black" stroke="black" stroke-width="0.675"/>
<circle cx="21.5" cy="45.1748" r="13.5" fill="black"/>
<rect x="35" y="31.6748" width="27" height="27" fill="black"/>
<path d="M61.6625 32.0119V20.5369C61.775 19.5244 61.6625 16.5544 60.3125 12.7744" stroke="black" stroke-width="0.675"/>
<path d="M21.1621 4.33691H48.1621C49.0621 4.33691 51.3346 4.60691 53.2246 5.68691" stroke="black" stroke-width="0.675"/>
<path d="M21.5 32.0122H35.3375V44.8372H34.6625L21.5 32.0122Z" fill="black" stroke="black" stroke-width="0.675"/>
<path d="M45.7846 25.0463C46.2706 29.2743 43.269 31.5372 41.557 32.2132C41.4991 32.2361 41.498 32.3193 41.556 32.342C43.9315 33.2732 46.3822 33.7501 47.8216 33.6947C50.7642 33.5814 52.4159 33.0364 54.2611 32.276C52.5867 31.6869 49.3635 29.4163 49.8658 25.0464C50.3681 20.6764 54.0518 20.4408 55.8309 20.8692C56.6158 21.2977 57.9972 22.508 57.2437 23.9218C56.4902 25.3356 55.36 25.1535 54.8891 24.8858C54.6275 24.7787 54.0101 24.693 53.6333 25.2071C53.2566 25.7212 53.9996 26.9208 54.4182 27.4563C55.2554 27.9918 57.338 28.7737 58.9705 27.617C60.6031 26.4602 61.2205 24.136 61.3252 23.1185C61.3251 21.7797 60.5087 18.6522 57.2437 16.8528C53.9787 15.0535 51.2787 16.5315 50.3368 17.4955C51.1217 15.6747 51.7182 11.1013 47.8252 7.37402C43.9322 11.1013 44.5287 15.6747 45.3136 17.4954C44.3717 16.5315 41.6717 15.0534 38.4067 16.8528C35.1417 18.6522 34.3253 21.7796 34.3252 23.1185C34.4298 24.136 35.0473 26.4601 36.6798 27.6169C38.3124 28.7736 40.395 27.9917 41.2322 27.4562C41.6508 26.9207 42.3938 25.7211 42.0171 25.207C41.6403 24.6929 41.0229 24.7786 40.7612 24.8857C40.2903 25.1535 39.1602 25.3355 38.4067 23.9217C37.6532 22.508 39.0346 21.2976 39.8195 20.8692C41.5986 20.4408 45.2823 20.6764 45.7846 25.0463Z" fill="black" stroke="black" stroke-width="0.675"/>
<path d="M69.299 57.25V3.7H79.397V57.25H69.299ZM100.945 57.25V12.88H85.3389V3.7H126.649V12.88H111.043V57.25H100.945ZM146.378 57.25V38.8135L128.171 3.7H139.416L150.738 26.65H152.115L163.437 3.7H174.683L156.476 38.8135V57.25H146.378ZM196.523 58.321C192.392 58.321 188.745 57.5815 185.583 56.1025C182.421 54.6235 179.948 52.507 178.163 49.753C176.378 46.999 175.485 43.684 175.485 39.808V37.666H185.43V39.808C185.43 43.021 186.425 45.4435 188.414 47.0755C190.403 48.6565 193.106 49.447 196.523 49.447C199.991 49.447 202.566 48.7585 204.249 47.3815C205.983 46.0045 206.85 44.245 206.85 42.103C206.85 40.624 206.417 39.4255 205.55 38.5075C204.734 37.5895 203.51 36.85 201.878 36.289C200.297 35.677 198.359 35.116 196.064 34.606L194.304 34.2235C190.632 33.4075 187.47 32.3875 184.818 31.1635C182.217 29.8885 180.203 28.231 178.775 26.191C177.398 24.151 176.709 21.499 176.709 18.235C176.709 14.971 177.474 12.1915 179.004 9.8965C180.585 7.5505 182.778 5.7655 185.583 4.5415C188.439 3.2665 191.78 2.629 195.605 2.629C199.43 2.629 202.821 3.292 205.779 4.618C208.788 5.893 211.134 7.831 212.817 10.432C214.551 12.982 215.418 16.195 215.418 20.071V22.366H205.473V20.071C205.473 18.031 205.065 16.399 204.249 15.175C203.484 13.9 202.362 12.982 200.883 12.421C199.404 11.809 197.645 11.503 195.605 11.503C192.545 11.503 190.275 12.0895 188.796 13.2625C187.368 14.3845 186.654 15.94 186.654 17.929C186.654 19.255 186.986 20.377 187.649 21.295C188.363 22.213 189.408 22.978 190.785 23.59C192.162 24.202 193.922 24.7375 196.064 25.1965L197.823 25.579C201.648 26.395 204.963 27.4405 207.768 28.7155C210.624 29.9905 212.843 31.6735 214.424 33.7645C216.005 35.8555 216.795 38.533 216.795 41.797C216.795 45.061 215.954 47.9425 214.271 50.4415C212.639 52.8895 210.293 54.8275 207.233 56.2555C204.224 57.6325 200.654 58.321 196.523 58.321Z" fill="black"/>
</g>
<defs>
<clipPath id="clip0_1314_1172">
<rect width="219" height="62" fill="white"/>
</clipPath>
</defs>
</svg>
